<svg width="153" height="62" viewBox="0 0 153 62" fill="none" xmlns="http://www.w3.org/2000/svg">
<path fill-rule="evenodd" clip-rule="evenodd" d="M1.21405 27.6084C-0.365046 29.1533 -0.409532 31.702 1.11469 33.3011L27.2522 60.7224C28.7765 62.3215 31.2922 62.3654 32.8713 60.8205L59.9349 34.3426C61.514 32.7977 61.5585 30.249 60.0343 28.6499L33.8967 1.22864C32.3725 -0.370444 29.8568 -0.414353 28.2777 1.13056L24.057 5.25985V28.7074H37.4607V19.1754C37.4607 18.065 38.3608 17.1649 39.4712 17.1649C40.5816 17.1649 41.4817 18.065 41.4817 19.1754V30.7354C41.4818 30.7384 41.4818 30.7413 41.4818 30.7443C41.4818 30.7473 41.4818 30.7503 41.4817 30.7532V47.066C41.4817 48.1764 40.5816 49.0766 39.4712 49.0766C38.3608 49.0766 37.4607 48.1764 37.4607 47.066V32.7812H24.057V47.066C24.057 48.1764 23.1569 49.0766 22.0465 49.0766C20.9361 49.0766 20.0359 48.1764 20.0359 47.066V9.19391L1.21405 27.6084Z" fill="#FFA515"/>
<path d="M72.0315 15.336H73.2195V27H72.0315V21.456H66.4515V27H65.2635V15.336H66.4515V20.448H72.0315V15.336ZM82.6549 21.222C82.6549 21.654 82.6189 22.104 82.5469 22.572H76.8949C76.9429 23.892 77.1649 24.804 77.5609 25.308C77.9569 25.8 78.6589 26.046 79.6669 26.046C80.4229 26.046 81.3049 25.884 82.3129 25.56L82.4209 26.46C82.1449 26.568 81.9289 26.646 81.7729 26.694C81.6289 26.73 81.4729 26.778 81.3049 26.838C81.1369 26.886 81.0109 26.922 80.9269 26.946C80.8429 26.97 80.7229 27 80.5669 27.036C80.4109 27.072 80.2789 27.096 80.1709 27.108C79.8469 27.144 79.5709 27.162 79.3429 27.162C78.2149 27.162 77.3269 26.766 76.6789 25.974C76.0309 25.182 75.7069 24.078 75.7069 22.662C75.7069 21.882 75.8029 21.198 75.9949 20.61C76.1869 20.01 76.4149 19.554 76.6789 19.242C76.9429 18.918 77.2609 18.66 77.6329 18.468C78.1849 18.168 78.7849 18.006 79.4329 17.982C81.5809 17.994 82.6549 19.074 82.6549 21.222ZM81.5209 20.934C81.5209 20.214 81.3409 19.71 80.9809 19.422C80.6209 19.134 80.0869 18.99 79.3789 18.99C78.6709 18.99 78.0889 19.182 77.6329 19.566C77.1769 19.938 76.9429 20.634 76.9309 21.654H81.4669C81.5029 21.378 81.5209 21.138 81.5209 20.934ZM91.3163 27H90.1463V20.664C90.1223 20.04 90.0023 19.614 89.7863 19.386C89.5823 19.146 89.1983 19.026 88.6343 19.026C88.0703 19.026 87.5423 19.146 87.0503 19.386C86.5703 19.614 86.2883 19.83 86.2043 20.034V27H85.0523V20.43L84.7463 18.234H85.5923L85.6463 18.288L85.9163 19.188C86.3723 18.888 86.7083 18.672 86.9243 18.54C87.1523 18.408 87.4643 18.276 87.8603 18.144C88.2563 18.012 88.6583 17.946 89.0663 17.946C90.0743 17.946 90.7463 18.348 91.0823 19.152C91.5143 18.864 91.8503 18.654 92.0903 18.522C92.7623 18.138 93.4583 17.946 94.1783 17.946C94.8983 17.946 95.4503 18.15 95.8343 18.558C96.2303 18.966 96.4343 19.668 96.4463 20.664V27H95.2763V20.664C95.2523 20.04 95.1323 19.614 94.9163 19.386C94.7123 19.146 94.3223 19.026 93.7463 19.026C93.1823 19.026 92.6603 19.146 92.1803 19.386C91.7003 19.614 91.4123 19.83 91.3163 20.034V27ZM105.717 21.222C105.717 21.654 105.681 22.104 105.609 22.572H99.9574C100.005 23.892 100.227 24.804 100.623 25.308C101.019 25.8 101.721 26.046 102.729 26.046C103.485 26.046 104.367 25.884 105.375 25.56L105.483 26.46C105.207 26.568 104.991 26.646 104.835 26.694C104.691 26.73 104.535 26.778 104.367 26.838C104.199 26.886 104.073 26.922 103.989 26.946C103.905 26.97 103.785 27 103.629 27.036C103.473 27.072 103.341 27.096 103.233 27.108C102.909 27.144 102.633 27.162 102.405 27.162C101.277 27.162 100.389 26.766 99.7414 25.974C99.0934 25.182 98.7694 24.078 98.7694 22.662C98.7694 21.882 98.8654 21.198 99.0574 20.61C99.2494 20.01 99.4774 19.554 99.7414 19.242C100.005 18.918 100.323 18.66 100.695 18.468C101.247 18.168 101.847 18.006 102.495 17.982C104.643 17.994 105.717 19.074 105.717 21.222ZM104.583 20.934C104.583 20.214 104.403 19.71 104.043 19.422C103.683 19.134 103.149 18.99 102.441 18.99C101.733 18.99 101.151 19.182 100.695 19.566C100.239 19.938 100.005 20.634 99.9934 21.654H104.529C104.565 21.378 104.583 21.138 104.583 20.934ZM111.751 18C111.991 18 112.255 18.036 112.543 18.108L112.111 19.17C111.919 19.134 111.727 19.116 111.535 19.116C110.779 19.116 110.011 19.536 109.231 20.376V27H108.115V20.448L107.809 18.252H108.493L108.547 18.288L108.889 19.566C109.417 19.05 109.897 18.66 110.329 18.396C110.761 18.132 111.235 18 111.751 18ZM118.634 19.314C118.454 19.23 118.232 19.158 117.968 19.098C117.716 19.038 117.362 19.008 116.906 19.008C116.45 19.008 116.048 19.086 115.7 19.242C115.364 19.386 115.112 19.638 114.944 19.998C114.788 20.346 114.686 20.706 114.638 21.078C114.59 21.438 114.566 21.936 114.566 22.572C114.566 23.928 114.716 24.864 115.016 25.38C115.328 25.896 116.006 26.154 117.05 26.154C117.614 26.154 118.07 26.082 118.418 25.938C118.766 25.794 119.024 25.554 119.192 25.218C119.36 24.87 119.468 24.51 119.516 24.138C119.564 23.754 119.588 23.304 119.588 22.788C119.588 22.26 119.582 21.888 119.57 21.672C119.57 21.444 119.552 21.186 119.516 20.898C119.48 20.598 119.426 20.37 119.354 20.214C119.294 20.058 119.204 19.89 119.084 19.71C118.964 19.53 118.814 19.398 118.634 19.314ZM117.104 18C118.04 18 118.766 18.126 119.282 18.378C119.798 18.618 120.182 19.068 120.434 19.728C120.686 20.388 120.812 21.24 120.812 22.284C120.812 23.328 120.698 24.162 120.47 24.786C120.254 25.41 119.96 25.89 119.588 26.226C118.868 26.874 118.028 27.198 117.068 27.198C115.664 27.198 114.692 26.868 114.152 26.208C113.612 25.548 113.342 24.342 113.342 22.59C113.342 21.75 113.456 21.018 113.684 20.394C113.912 19.77 114.218 19.296 114.602 18.972C115.346 18.324 116.18 18 117.104 18ZM123.323 19.08C123.323 19.02 123.293 18.99 123.233 18.99H122.513V18.468L123.341 18.126L123.539 16.542H124.457V17.982C124.493 18.066 124.739 18.108 125.195 18.108H126.257L126.113 18.954L124.601 18.972C124.493 18.972 124.439 18.996 124.439 19.044V24.732L124.907 27.072H124.115L124.043 27.018L123.323 24.732V19.08ZM134.335 21.222C134.335 21.654 134.299 22.104 134.227 22.572H128.575C128.623 23.892 128.845 24.804 129.241 25.308C129.637 25.8 130.339 26.046 131.347 26.046C132.103 26.046 132.985 25.884 133.993 25.56L134.101 26.46C133.825 26.568 133.609 26.646 133.453 26.694C133.309 26.73 133.153 26.778 132.985 26.838C132.817 26.886 132.691 26.922 132.607 26.946C132.523 26.97 132.403 27 132.247 27.036C132.091 27.072 131.959 27.096 131.851 27.108C131.527 27.144 131.251 27.162 131.023 27.162C129.895 27.162 129.007 26.766 128.359 25.974C127.711 25.182 127.387 24.078 127.387 22.662C127.387 21.882 127.483 21.198 127.675 20.61C127.867 20.01 128.095 19.554 128.359 19.242C128.623 18.918 128.941 18.66 129.313 18.468C129.865 18.168 130.465 18.006 131.113 17.982C133.261 17.994 134.335 19.074 134.335 21.222ZM133.201 20.934C133.201 20.214 133.021 19.71 132.661 19.422C132.301 19.134 131.767 18.99 131.059 18.99C130.351 18.99 129.769 19.182 129.313 19.566C128.857 19.938 128.623 20.634 128.611 21.654H133.147C133.183 21.378 133.201 21.138 133.201 20.934ZM137.74 18.846C138.196 18.534 138.64 18.312 139.072 18.18C139.504 18.048 139.99 17.982 140.53 17.982C141.082 17.982 141.688 18.096 142.348 18.324L142.204 19.116C141.544 18.984 141.016 18.918 140.62 18.918C139.588 18.918 138.802 19.188 138.262 19.728C137.722 20.256 137.452 21.21 137.452 22.59C137.452 25.014 138.436 26.226 140.404 26.226C141.016 26.226 141.67 26.01 142.366 25.578L142.852 26.334C142.072 26.898 141.16 27.18 140.116 27.18C139.576 27.18 139.102 27.126 138.694 27.018C138.298 26.91 137.902 26.706 137.506 26.406C136.666 25.782 136.246 24.51 136.246 22.59C136.246 21.69 136.384 20.922 136.66 20.286C136.936 19.638 137.296 19.158 137.74 18.846ZM150.739 21.618L150.721 23.76C150.721 24.096 150.727 24.408 150.739 24.696L151.135 26.892L151.153 26.982H150.361L150.289 26.928L149.857 25.884C148.741 26.652 147.643 27.054 146.563 27.09C145.807 27.09 145.225 26.892 144.817 26.496C144.421 26.088 144.223 25.518 144.223 24.786C144.223 23.778 144.505 23.094 145.069 22.734C145.633 22.374 146.407 22.194 147.391 22.194C147.511 22.194 148.237 22.23 149.569 22.302V21.132C149.569 20.34 149.419 19.794 149.119 19.494C148.831 19.182 148.423 19.026 147.895 19.026C147.367 19.026 146.347 19.188 144.835 19.512L144.673 18.648C146.161 18.204 147.229 17.982 147.877 17.982C148.861 17.982 149.641 18.288 150.217 18.9C150.565 19.272 150.739 20.178 150.739 21.618ZM149.569 23.202L147.679 23.13C146.719 23.13 146.095 23.226 145.807 23.418C145.519 23.61 145.375 23.994 145.375 24.57C145.375 25.134 145.471 25.524 145.663 25.74C145.855 25.944 146.185 26.046 146.653 26.046C147.133 26.046 147.691 25.95 148.327 25.758C148.975 25.566 149.389 25.344 149.569 25.092V23.202ZM106.563 38.144H107.805L110.217 44.948L110.523 45.902H110.577L110.847 44.948L113.277 38.144H114.519L111.243 46.91L111.171 47H109.929L109.857 46.91L106.563 38.144ZM116.428 38.144H117.544V47H116.428V38.144ZM116.356 35.174H117.616V36.47H116.356V35.174ZM124.038 38C124.278 38 124.542 38.036 124.83 38.108L124.398 39.17C124.206 39.134 124.014 39.116 123.822 39.116C123.066 39.116 122.298 39.536 121.518 40.376V47H120.402V40.448L120.096 38.252H120.78L120.834 38.288L121.176 39.566C121.704 39.05 122.184 38.66 122.616 38.396C123.048 38.132 123.522 38 124.038 38ZM126.663 39.08C126.663 39.02 126.633 38.99 126.573 38.99H125.853V38.468L126.681 38.126L126.879 36.542H127.797V37.982C127.833 38.066 128.079 38.108 128.535 38.108H129.597L129.453 38.954L127.941 38.972C127.833 38.972 127.779 38.996 127.779 39.044V44.732L128.247 47.072H127.455L127.383 47.018L126.663 44.732V39.08ZM131.386 38.144H132.556V44.462C132.568 45.062 132.73 45.482 133.042 45.722C133.366 45.962 133.828 46.082 134.428 46.082C135.04 46.082 135.574 45.968 136.03 45.74C136.498 45.512 136.774 45.296 136.858 45.092V38.144H138.01V44.678L138.334 47H137.578L137.524 46.946L137.146 45.938C136.678 46.25 136.342 46.472 136.138 46.604C135.934 46.724 135.634 46.85 135.238 46.982C134.854 47.102 134.446 47.162 134.014 47.162C132.298 47.162 131.422 46.256 131.386 44.444V38.144ZM146.819 41.618L146.801 43.76C146.801 44.096 146.807 44.408 146.819 44.696L147.215 46.892L147.233 46.982H146.441L146.369 46.928L145.937 45.884C144.821 46.652 143.723 47.054 142.643 47.09C141.887 47.09 141.305 46.892 140.897 46.496C140.501 46.088 140.303 45.518 140.303 44.786C140.303 43.778 140.585 43.094 141.149 42.734C141.713 42.374 142.487 42.194 143.471 42.194C143.591 42.194 144.317 42.23 145.649 42.302V41.132C145.649 40.34 145.499 39.794 145.199 39.494C144.911 39.182 144.503 39.026 143.975 39.026C143.447 39.026 142.427 39.188 140.915 39.512L140.753 38.648C142.241 38.204 143.309 37.982 143.957 37.982C144.941 37.982 145.721 38.288 146.297 38.9C146.645 39.272 146.819 40.178 146.819 41.618ZM145.649 43.202L143.759 43.13C142.799 43.13 142.175 43.226 141.887 43.418C141.599 43.61 141.455 43.994 141.455 44.57C141.455 45.134 141.551 45.524 141.743 45.74C141.935 45.944 142.265 46.046 142.733 46.046C143.213 46.046 143.771 45.95 144.407 45.758C145.055 45.566 145.469 45.344 145.649 45.092V43.202ZM149.561 33.752H150.677V44.858L151.127 47.162H150.299L150.227 47.09L149.561 44.858V33.752Z" fill="#FFA515"/>
</svg>
